<svg width="75" height="75" viewBox="0 0 75 75" fill="none" xmlns="http://www.w3.org/2000/svg">
<circle cx="37.5" cy="37.5" r="37.5" fill="black"/>
<path d="M18.04 32.6426C18.04 32.1445 17.8643 31.7637 17.5127 31.5C17.1611 31.2305 16.5283 30.9492 15.6143 30.6562C14.7002 30.3574 13.9766 30.0645 13.4434 29.7773C11.9902 28.9922 11.2637 27.9346 11.2637 26.6045C11.2637 25.9131 11.457 25.2979 11.8438 24.7588C12.2363 24.2139 12.7959 23.7891 13.5225 23.4844C14.2549 23.1797 15.0752 23.0273 15.9834 23.0273C16.8975 23.0273 17.7119 23.1943 18.4268 23.5283C19.1416 23.8564 19.6953 24.3223 20.0879 24.9258C20.4863 25.5293 20.6855 26.2148 20.6855 26.9824H18.0488C18.0488 26.3965 17.8643 25.9424 17.4951 25.6201C17.126 25.292 16.6074 25.1279 15.9395 25.1279C15.2949 25.1279 14.7939 25.2656 14.4365 25.541C14.0791 25.8105 13.9004 26.168 13.9004 26.6133C13.9004 27.0293 14.1084 27.3779 14.5244 27.6592C14.9463 27.9404 15.5645 28.2041 16.3789 28.4502C17.8789 28.9014 18.9717 29.4609 19.6572 30.1289C20.3428 30.7969 20.6855 31.6289 20.6855 32.625C20.6855 33.7324 20.2666 34.6025 19.4287 35.2354C18.5908 35.8623 17.4629 36.1758 16.0449 36.1758C15.0605 36.1758 14.1641 35.9971 13.3555 35.6396C12.5469 35.2764 11.9287 34.7812 11.501 34.1543C11.0791 33.5273 10.8682 32.8008 10.8682 31.9746H13.5137C13.5137 33.3867 14.3574 34.0928 16.0449 34.0928C16.6719 34.0928 17.1611 33.9668 17.5127 33.7148C17.8643 33.457 18.04 33.0996 18.04 32.6426ZM32.1113 25.3389H28.1914V36H25.5547V25.3389H21.6875V23.2031H32.1113V25.3389ZM39.793 33.3633H35.1699L34.291 36H31.4873L36.251 23.2031H38.6943L43.4844 36H40.6807L39.793 33.3633ZM35.8818 31.2275H39.0811L37.4727 26.4375L35.8818 31.2275ZM49.417 31.3154H47.3164V36H44.6797V23.2031H49.4346C50.9463 23.2031 52.1123 23.54 52.9326 24.2139C53.7529 24.8877 54.1631 25.8398 54.1631 27.0703C54.1631 27.9434 53.9727 28.6729 53.5918 29.2588C53.2168 29.8389 52.6455 30.3018 51.8779 30.6475L54.6465 35.877V36H51.8164L49.417 31.3154ZM47.3164 29.1797H49.4434C50.1055 29.1797 50.6182 29.0127 50.9814 28.6787C51.3447 28.3389 51.5264 27.873 51.5264 27.2812C51.5264 26.6777 51.3535 26.2031 51.0078 25.8574C50.668 25.5117 50.1436 25.3389 49.4346 25.3389H47.3164V29.1797ZM65.3691 25.3389H61.4492V36H58.8125V25.3389H54.9453V23.2031H65.3691V25.3389ZM18.9453 54.8818H24.5439V57H16.3086V44.2031H18.9453V54.8818ZM36.0137 50.8916C36.0137 52.1514 35.791 53.2559 35.3457 54.2051C34.9004 55.1543 34.2617 55.8867 33.4297 56.4023C32.6035 56.918 31.6543 57.1758 30.582 57.1758C29.5215 57.1758 28.5752 56.9209 27.7432 56.4111C26.9111 55.9014 26.2666 55.1748 25.8096 54.2314C25.3525 53.2822 25.1211 52.1924 25.1152 50.9619V50.3291C25.1152 49.0693 25.3408 47.9619 25.792 47.0068C26.249 46.0459 26.8906 45.3105 27.7168 44.8008C28.5488 44.2852 29.498 44.0273 30.5645 44.0273C31.6309 44.0273 32.5771 44.2852 33.4033 44.8008C34.2354 45.3105 34.877 46.0459 35.3281 47.0068C35.7852 47.9619 36.0137 49.0664 36.0137 50.3203V50.8916ZM33.3418 50.3115C33.3418 48.9697 33.1016 47.9502 32.6211 47.2529C32.1406 46.5557 31.4551 46.207 30.5645 46.207C29.6797 46.207 28.9971 46.5527 28.5166 47.2441C28.0361 47.9297 27.793 48.9375 27.7871 50.2676V50.8916C27.7871 52.1982 28.0273 53.2119 28.5078 53.9326C28.9883 54.6533 29.6797 55.0137 30.582 55.0137C31.4668 55.0137 32.1465 54.668 32.6211 53.9766C33.0957 53.2793 33.3359 52.2656 33.3418 50.9355V50.3115ZM48.4414 50.8916C48.4414 52.1514 48.2188 53.2559 47.7734 54.2051C47.3281 55.1543 46.6895 55.8867 45.8574 56.4023C45.0312 56.918 44.082 57.1758 43.0098 57.1758C41.9492 57.1758 41.0029 56.9209 40.1709 56.4111C39.3389 55.9014 38.6943 55.1748 38.2373 54.2314C37.7803 53.2822 37.5488 52.1924 37.543 50.9619V50.3291C37.543 49.0693 37.7686 47.9619 38.2197 47.0068C38.6768 46.0459 39.3184 45.3105 40.1445 44.8008C40.9766 44.2852 41.9258 44.0273 42.9922 44.0273C44.0586 44.0273 45.0049 44.2852 45.8311 44.8008C46.6631 45.3105 47.3047 46.0459 47.7559 47.0068C48.2129 47.9619 48.4414 49.0664 48.4414 50.3203V50.8916ZM45.7695 50.3115C45.7695 48.9697 45.5293 47.9502 45.0488 47.2529C44.5684 46.5557 43.8828 46.207 42.9922 46.207C42.1074 46.207 41.4248 46.5527 40.9443 47.2441C40.4639 47.9297 40.2207 48.9375 40.2148 50.2676V50.8916C40.2148 52.1982 40.4551 53.2119 40.9355 53.9326C41.416 54.6533 42.1074 55.0137 43.0098 55.0137C43.8945 55.0137 44.5742 54.668 45.0488 53.9766C45.5234 53.2793 45.7637 52.2656 45.7695 50.9355V50.3115ZM52.9941 52.4912V57H50.3574V44.2031H55.3496C56.3105 44.2031 57.1543 44.3789 57.8809 44.7305C58.6133 45.082 59.1758 45.583 59.5684 46.2334C59.9609 46.8779 60.1572 47.6133 60.1572 48.4395C60.1572 49.6934 59.7266 50.6836 58.8652 51.4102C58.0098 52.1309 56.8232 52.4912 55.3057 52.4912H52.9941ZM52.9941 50.3555H55.3496C56.0469 50.3555 56.5771 50.1914 56.9404 49.8633C57.3096 49.5352 57.4941 49.0664 57.4941 48.457C57.4941 47.8301 57.3096 47.3232 56.9404 46.9365C56.5713 46.5498 56.0615 46.3506 55.4111 46.3389H52.9941V50.3555Z" fill="white"/>
</svg>
