<svg width="75" height="75" viewBox="0 0 75 75" fill="none" xmlns="http://www.w3.org/2000/svg">
<circle cx="37.5" cy="37.5" r="37.5" fill="black"/>
<path d="M29.5713 30.4541H24.5088V33.8818H30.4502V36H21.8721V23.2031H30.4326V25.3389H24.5088V28.3887H29.5713V30.4541ZM42.4033 36H39.7666L34.6338 27.5801V36H31.9971V23.2031H34.6338L39.7754 31.6406V23.2031H42.4033V36ZM44.7061 36V23.2031H48.6436C49.7686 23.2031 50.7734 23.458 51.6582 23.9678C52.5488 24.4717 53.2432 25.1924 53.7412 26.1299C54.2393 27.0615 54.4883 28.1221 54.4883 29.3115V29.9004C54.4883 31.0898 54.2422 32.1475 53.75 33.0732C53.2637 33.999 52.5752 34.7168 51.6846 35.2266C50.7939 35.7363 49.7891 35.9941 48.6699 36H44.7061ZM47.3428 25.3389V33.8818H48.6172C49.6484 33.8818 50.4365 33.5449 50.9814 32.8711C51.5264 32.1973 51.8047 31.2334 51.8164 29.9795V29.3027C51.8164 28.002 51.5469 27.0176 51.0078 26.3496C50.4688 25.6758 49.6807 25.3389 48.6436 25.3389H47.3428ZM18.9453 54.8818H24.5439V57H16.3086V44.2031H18.9453V54.8818ZM36.0137 50.8916C36.0137 52.1514 35.791 53.2559 35.3457 54.2051C34.9004 55.1543 34.2617 55.8867 33.4297 56.4023C32.6035 56.918 31.6543 57.1758 30.582 57.1758C29.5215 57.1758 28.5752 56.9209 27.7432 56.4111C26.9111 55.9014 26.2666 55.1748 25.8096 54.2314C25.3525 53.2822 25.1211 52.1924 25.1152 50.9619V50.3291C25.1152 49.0693 25.3408 47.9619 25.792 47.0068C26.249 46.0459 26.8906 45.3105 27.7168 44.8008C28.5488 44.2852 29.498 44.0273 30.5645 44.0273C31.6309 44.0273 32.5771 44.2852 33.4033 44.8008C34.2354 45.3105 34.877 46.0459 35.3281 47.0068C35.7852 47.9619 36.0137 49.0664 36.0137 50.3203V50.8916ZM33.3418 50.3115C33.3418 48.9697 33.1016 47.9502 32.6211 47.2529C32.1406 46.5557 31.4551 46.207 30.5645 46.207C29.6797 46.207 28.9971 46.5527 28.5166 47.2441C28.0361 47.9297 27.793 48.9375 27.7871 50.2676V50.8916C27.7871 52.1982 28.0273 53.2119 28.5078 53.9326C28.9883 54.6533 29.6797 55.0137 30.582 55.0137C31.4668 55.0137 32.1465 54.668 32.6211 53.9766C33.0957 53.2793 33.3359 52.2656 33.3418 50.9355V50.3115ZM48.4414 50.8916C48.4414 52.1514 48.2188 53.2559 47.7734 54.2051C47.3281 55.1543 46.6895 55.8867 45.8574 56.4023C45.0312 56.918 44.082 57.1758 43.0098 57.1758C41.9492 57.1758 41.0029 56.9209 40.1709 56.4111C39.3389 55.9014 38.6943 55.1748 38.2373 54.2314C37.7803 53.2822 37.5488 52.1924 37.543 50.9619V50.3291C37.543 49.0693 37.7686 47.9619 38.2197 47.0068C38.6768 46.0459 39.3184 45.3105 40.1445 44.8008C40.9766 44.2852 41.9258 44.0273 42.9922 44.0273C44.0586 44.0273 45.0049 44.2852 45.8311 44.8008C46.6631 45.3105 47.3047 46.0459 47.7559 47.0068C48.2129 47.9619 48.4414 49.0664 48.4414 50.3203V50.8916ZM45.7695 50.3115C45.7695 48.9697 45.5293 47.9502 45.0488 47.2529C44.5684 46.5557 43.8828 46.207 42.9922 46.207C42.1074 46.207 41.4248 46.5527 40.9443 47.2441C40.4639 47.9297 40.2207 48.9375 40.2148 50.2676V50.8916C40.2148 52.1982 40.4551 53.2119 40.9355 53.9326C41.416 54.6533 42.1074 55.0137 43.0098 55.0137C43.8945 55.0137 44.5742 54.668 45.0488 53.9766C45.5234 53.2793 45.7637 52.2656 45.7695 50.9355V50.3115ZM52.9941 52.4912V57H50.3574V44.2031H55.3496C56.3105 44.2031 57.1543 44.3789 57.8809 44.7305C58.6133 45.082 59.1758 45.583 59.5684 46.2334C59.9609 46.8779 60.1572 47.6133 60.1572 48.4395C60.1572 49.6934 59.7266 50.6836 58.8652 51.4102C58.0098 52.1309 56.8232 52.4912 55.3057 52.4912H52.9941ZM52.9941 50.3555H55.3496C56.0469 50.3555 56.5771 50.1914 56.9404 49.8633C57.3096 49.5352 57.4941 49.0664 57.4941 48.457C57.4941 47.8301 57.3096 47.3232 56.9404 46.9365C56.5713 46.5498 56.0615 46.3506 55.4111 46.3389H52.9941V50.3555Z" fill="white"/>
</svg>
